# xmcd
# 
# Track frame offsets:
#     150
#     28515
#     48632
#     74080
#     103027
#     117450
#     133482
#     149087
#     153812
#     168842
#     190312
#     210590
#     222222
#     235455
#     258007
#     278247
# 
# Disc length: 3959
# 
# Revision: 14
# Processed by: cddbd v1.5.2PL0 Copyright (c) Steve Scherf et al.
# Submitted via: fre:ac v1.0.27
# 
DISCID=fc0f7510
DTITLE=Taj Mahal - In Progress and In Motion 1965-1998 [CD1]
DYEAR=1998
DGENRE=Blues
TTITLE0=You're Gonna Need Somebody On Your Bond
TTITLE1=Corrina
TTITLE2=Checkin' Up On My Baby
TTITLE3=Leavin' Trunk
TTITLE4=Buck Dancer's Choice
TTITLE5=Going Up To The Country, Paint My Mailbox Blue
TTITLE6=She Caught The Katy and Left Me A Mule To Ride
TTITLE7=Ain't Gwine Whistle Dixie (Any Mo')
TTITLE8=Stagger Lee
TTITLE9=Built For Comfort
TTITLE10=Natural Man
TTITLE11=Railroad Bill
TTITLE12=Texas Woman Blues
TTITLE13=Early In The Morning
TTITLE14=Dust My Broom
TTITLE15=Blind Boy Rag
EXTD=
EXTT0=
EXTT1=
EXTT2=
EXTT3=
EXTT4=
EXTT5=
EXTT6=
EXTT7=
EXTT8=
EXTT9=
EXTT10=
EXTT11=
EXTT12=
EXTT13=
EXTT14=
EXTT15=
PLAYORDER=
